<mxfile host="app.diagrams.net" modified="2023-08-20T01:06:37.437Z" agent="Mozilla/5.0 (Windows NT 10.0; Win64; x64) AppleWebKit/537.36 (KHTML, like Gecko) Chrome/116.0.0.0 Safari/537.36" etag="GoTQedp1291Zf6AsVXah" version="21.6.8" type="device">
  <diagram name="Página-1" id="HbvXldqzOgcYetHZfB8v">
    <mxGraphModel dx="794" dy="478" grid="1" gridSize="10" guides="1" tooltips="1" connect="1" arrows="1" fold="1" page="1" pageScale="1" pageWidth="827" pageHeight="1169" math="0" shadow="0">
      <root>
        <mxCell id="0" />
        <mxCell id="1" parent="0" />
        <mxCell id="yErZJvq2NgkCqc1q4B-T-3" style="edgeStyle=orthogonalEdgeStyle;rounded=0;orthogonalLoop=1;jettySize=auto;html=1;" edge="1" parent="1" source="yErZJvq2NgkCqc1q4B-T-1" target="yErZJvq2NgkCqc1q4B-T-4">
          <mxGeometry relative="1" as="geometry">
            <mxPoint x="240" y="190" as="targetPoint" />
          </mxGeometry>
        </mxCell>
        <mxCell id="yErZJvq2NgkCqc1q4B-T-14" style="edgeStyle=orthogonalEdgeStyle;rounded=0;orthogonalLoop=1;jettySize=auto;html=1;" edge="1" parent="1" source="yErZJvq2NgkCqc1q4B-T-1">
          <mxGeometry relative="1" as="geometry">
            <mxPoint x="100" y="270" as="targetPoint" />
          </mxGeometry>
        </mxCell>
        <mxCell id="yErZJvq2NgkCqc1q4B-T-1" value="Empleado" style="rounded=0;whiteSpace=wrap;html=1;" vertex="1" parent="1">
          <mxGeometry x="40" y="160" width="120" height="60" as="geometry" />
        </mxCell>
        <mxCell id="yErZJvq2NgkCqc1q4B-T-2" style="edgeStyle=orthogonalEdgeStyle;rounded=0;orthogonalLoop=1;jettySize=auto;html=1;exitX=0.5;exitY=1;exitDx=0;exitDy=0;" edge="1" parent="1" source="yErZJvq2NgkCqc1q4B-T-1" target="yErZJvq2NgkCqc1q4B-T-1">
          <mxGeometry relative="1" as="geometry" />
        </mxCell>
        <mxCell id="yErZJvq2NgkCqc1q4B-T-5" style="edgeStyle=orthogonalEdgeStyle;rounded=0;orthogonalLoop=1;jettySize=auto;html=1;" edge="1" parent="1" source="yErZJvq2NgkCqc1q4B-T-4">
          <mxGeometry relative="1" as="geometry">
            <mxPoint x="320" y="190" as="targetPoint" />
          </mxGeometry>
        </mxCell>
        <mxCell id="yErZJvq2NgkCqc1q4B-T-4" value="Login" style="ellipse;whiteSpace=wrap;html=1;aspect=fixed;" vertex="1" parent="1">
          <mxGeometry x="220" y="160" width="60" height="60" as="geometry" />
        </mxCell>
        <mxCell id="yErZJvq2NgkCqc1q4B-T-7" style="edgeStyle=orthogonalEdgeStyle;rounded=0;orthogonalLoop=1;jettySize=auto;html=1;" edge="1" parent="1" source="yErZJvq2NgkCqc1q4B-T-6">
          <mxGeometry relative="1" as="geometry">
            <mxPoint x="430" y="190" as="targetPoint" />
          </mxGeometry>
        </mxCell>
        <mxCell id="yErZJvq2NgkCqc1q4B-T-6" value="Cod. del producto" style="ellipse;whiteSpace=wrap;html=1;aspect=fixed;" vertex="1" parent="1">
          <mxGeometry x="320" y="160" width="60" height="60" as="geometry" />
        </mxCell>
        <mxCell id="yErZJvq2NgkCqc1q4B-T-10" style="edgeStyle=orthogonalEdgeStyle;rounded=0;orthogonalLoop=1;jettySize=auto;html=1;" edge="1" parent="1" source="yErZJvq2NgkCqc1q4B-T-9">
          <mxGeometry relative="1" as="geometry">
            <mxPoint x="540" y="190" as="targetPoint" />
          </mxGeometry>
        </mxCell>
        <mxCell id="yErZJvq2NgkCqc1q4B-T-9" value="Fecha de ingreso" style="ellipse;whiteSpace=wrap;html=1;aspect=fixed;" vertex="1" parent="1">
          <mxGeometry x="430" y="160" width="60" height="60" as="geometry" />
        </mxCell>
        <mxCell id="yErZJvq2NgkCqc1q4B-T-13" style="edgeStyle=orthogonalEdgeStyle;rounded=0;orthogonalLoop=1;jettySize=auto;html=1;entryX=0.5;entryY=1;entryDx=0;entryDy=0;" edge="1" parent="1" source="yErZJvq2NgkCqc1q4B-T-11" target="yErZJvq2NgkCqc1q4B-T-12">
          <mxGeometry relative="1" as="geometry" />
        </mxCell>
        <mxCell id="yErZJvq2NgkCqc1q4B-T-11" value="Ubicación&amp;nbsp; producto" style="ellipse;whiteSpace=wrap;html=1;aspect=fixed;" vertex="1" parent="1">
          <mxGeometry x="540" y="160" width="60" height="60" as="geometry" />
        </mxCell>
        <mxCell id="yErZJvq2NgkCqc1q4B-T-12" value="Producto" style="rounded=1;whiteSpace=wrap;html=1;" vertex="1" parent="1">
          <mxGeometry x="610" y="60" width="120" height="40" as="geometry" />
        </mxCell>
        <mxCell id="yErZJvq2NgkCqc1q4B-T-16" style="edgeStyle=orthogonalEdgeStyle;rounded=0;orthogonalLoop=1;jettySize=auto;html=1;" edge="1" parent="1" source="yErZJvq2NgkCqc1q4B-T-15">
          <mxGeometry relative="1" as="geometry">
            <mxPoint x="180" y="300" as="targetPoint" />
          </mxGeometry>
        </mxCell>
        <mxCell id="yErZJvq2NgkCqc1q4B-T-35" style="edgeStyle=orthogonalEdgeStyle;rounded=0;orthogonalLoop=1;jettySize=auto;html=1;entryX=0.5;entryY=0;entryDx=0;entryDy=0;" edge="1" parent="1" source="yErZJvq2NgkCqc1q4B-T-15" target="yErZJvq2NgkCqc1q4B-T-34">
          <mxGeometry relative="1" as="geometry" />
        </mxCell>
        <mxCell id="yErZJvq2NgkCqc1q4B-T-15" value="Compra" style="ellipse;whiteSpace=wrap;html=1;aspect=fixed;" vertex="1" parent="1">
          <mxGeometry x="70" y="270" width="60" height="60" as="geometry" />
        </mxCell>
        <mxCell id="yErZJvq2NgkCqc1q4B-T-18" style="edgeStyle=orthogonalEdgeStyle;rounded=0;orthogonalLoop=1;jettySize=auto;html=1;" edge="1" parent="1" source="yErZJvq2NgkCqc1q4B-T-17">
          <mxGeometry relative="1" as="geometry">
            <mxPoint x="290" y="300" as="targetPoint" />
          </mxGeometry>
        </mxCell>
        <mxCell id="yErZJvq2NgkCqc1q4B-T-17" value="Datos comprador" style="ellipse;whiteSpace=wrap;html=1;aspect=fixed;" vertex="1" parent="1">
          <mxGeometry x="180" y="270" width="60" height="60" as="geometry" />
        </mxCell>
        <mxCell id="yErZJvq2NgkCqc1q4B-T-20" style="edgeStyle=orthogonalEdgeStyle;rounded=0;orthogonalLoop=1;jettySize=auto;html=1;" edge="1" parent="1" source="yErZJvq2NgkCqc1q4B-T-19">
          <mxGeometry relative="1" as="geometry">
            <mxPoint x="400" y="300" as="targetPoint" />
          </mxGeometry>
        </mxCell>
        <mxCell id="yErZJvq2NgkCqc1q4B-T-19" value="Fecha de egreso" style="ellipse;whiteSpace=wrap;html=1;aspect=fixed;" vertex="1" parent="1">
          <mxGeometry x="290" y="270" width="60" height="60" as="geometry" />
        </mxCell>
        <mxCell id="yErZJvq2NgkCqc1q4B-T-25" style="edgeStyle=orthogonalEdgeStyle;rounded=0;orthogonalLoop=1;jettySize=auto;html=1;" edge="1" parent="1" source="yErZJvq2NgkCqc1q4B-T-21" target="yErZJvq2NgkCqc1q4B-T-26">
          <mxGeometry relative="1" as="geometry">
            <mxPoint x="650" y="300" as="targetPoint" />
          </mxGeometry>
        </mxCell>
        <mxCell id="yErZJvq2NgkCqc1q4B-T-21" value="Descontar&lt;br&gt;Stock" style="ellipse;whiteSpace=wrap;html=1;aspect=fixed;" vertex="1" parent="1">
          <mxGeometry x="400" y="270" width="60" height="60" as="geometry" />
        </mxCell>
        <mxCell id="yErZJvq2NgkCqc1q4B-T-36" style="edgeStyle=orthogonalEdgeStyle;rounded=0;orthogonalLoop=1;jettySize=auto;html=1;" edge="1" parent="1" source="yErZJvq2NgkCqc1q4B-T-23" target="yErZJvq2NgkCqc1q4B-T-34">
          <mxGeometry relative="1" as="geometry">
            <mxPoint x="150" y="390" as="targetPoint" />
          </mxGeometry>
        </mxCell>
        <mxCell id="yErZJvq2NgkCqc1q4B-T-23" value="Agregar&lt;br&gt;compra" style="ellipse;whiteSpace=wrap;html=1;aspect=fixed;" vertex="1" parent="1">
          <mxGeometry x="350" y="360" width="60" height="60" as="geometry" />
        </mxCell>
        <mxCell id="yErZJvq2NgkCqc1q4B-T-27" style="edgeStyle=orthogonalEdgeStyle;rounded=0;orthogonalLoop=1;jettySize=auto;html=1;" edge="1" parent="1" source="yErZJvq2NgkCqc1q4B-T-26">
          <mxGeometry relative="1" as="geometry">
            <mxPoint x="755" y="240" as="targetPoint" />
          </mxGeometry>
        </mxCell>
        <mxCell id="yErZJvq2NgkCqc1q4B-T-26" value="Dueño" style="rounded=0;whiteSpace=wrap;html=1;" vertex="1" parent="1">
          <mxGeometry x="600" y="280" width="110" height="40" as="geometry" />
        </mxCell>
        <mxCell id="yErZJvq2NgkCqc1q4B-T-31" style="edgeStyle=orthogonalEdgeStyle;rounded=0;orthogonalLoop=1;jettySize=auto;html=1;entryX=0.75;entryY=1;entryDx=0;entryDy=0;" edge="1" parent="1" source="yErZJvq2NgkCqc1q4B-T-29" target="yErZJvq2NgkCqc1q4B-T-12">
          <mxGeometry relative="1" as="geometry" />
        </mxCell>
        <mxCell id="yErZJvq2NgkCqc1q4B-T-29" value="Agregar&lt;br&gt;Stock" style="ellipse;whiteSpace=wrap;html=1;aspect=fixed;" vertex="1" parent="1">
          <mxGeometry x="730" y="180" width="60" height="60" as="geometry" />
        </mxCell>
        <mxCell id="yErZJvq2NgkCqc1q4B-T-32" value="" style="endArrow=classic;html=1;rounded=0;" edge="1" parent="1" target="yErZJvq2NgkCqc1q4B-T-23">
          <mxGeometry width="50" height="50" relative="1" as="geometry">
            <mxPoint x="380" y="300" as="sourcePoint" />
            <mxPoint x="400" y="330" as="targetPoint" />
            <Array as="points">
              <mxPoint x="380" y="350" />
            </Array>
          </mxGeometry>
        </mxCell>
        <mxCell id="yErZJvq2NgkCqc1q4B-T-37" style="edgeStyle=orthogonalEdgeStyle;rounded=0;orthogonalLoop=1;jettySize=auto;html=1;" edge="1" parent="1" source="yErZJvq2NgkCqc1q4B-T-34">
          <mxGeometry relative="1" as="geometry">
            <mxPoint x="100" y="470" as="targetPoint" />
          </mxGeometry>
        </mxCell>
        <mxCell id="yErZJvq2NgkCqc1q4B-T-34" value="Precio&lt;br&gt;compra" style="ellipse;whiteSpace=wrap;html=1;aspect=fixed;" vertex="1" parent="1">
          <mxGeometry x="70" y="360" width="60" height="60" as="geometry" />
        </mxCell>
        <mxCell id="yErZJvq2NgkCqc1q4B-T-39" style="edgeStyle=orthogonalEdgeStyle;rounded=0;orthogonalLoop=1;jettySize=auto;html=1;" edge="1" parent="1" source="yErZJvq2NgkCqc1q4B-T-38" target="yErZJvq2NgkCqc1q4B-T-40">
          <mxGeometry relative="1" as="geometry">
            <mxPoint x="370" y="500" as="targetPoint" />
          </mxGeometry>
        </mxCell>
        <mxCell id="yErZJvq2NgkCqc1q4B-T-38" value="Pago de&lt;br&gt;la&lt;br&gt;compra" style="ellipse;whiteSpace=wrap;html=1;aspect=fixed;" vertex="1" parent="1">
          <mxGeometry x="70" y="470" width="60" height="60" as="geometry" />
        </mxCell>
        <mxCell id="yErZJvq2NgkCqc1q4B-T-40" value="Informe" style="rounded=1;whiteSpace=wrap;html=1;" vertex="1" parent="1">
          <mxGeometry x="325" y="480" width="110" height="40" as="geometry" />
        </mxCell>
      </root>
    </mxGraphModel>
  </diagram>
</mxfile>
